<mxfile host="Electron" modified="2024-04-10T01:01:45.459Z" agent="Mozilla/5.0 (Macintosh; Intel Mac OS X 10_15_7) AppleWebKit/537.36 (KHTML, like Gecko) draw.io/24.1.0 Chrome/120.0.6099.109 Electron/28.1.0 Safari/537.36" etag="xC5DM3DLlg44BnyP4ye7" version="24.1.0" type="device">
  <diagram id="LlY3X-8SaOBALtwKq8lR" name="Page-1">
    <mxGraphModel dx="2087" dy="2205" grid="1" gridSize="10" guides="1" tooltips="1" connect="1" arrows="1" fold="1" page="0" pageScale="1" pageWidth="1169" pageHeight="827" math="0" shadow="0">
      <root>
        <mxCell id="0" />
        <mxCell id="1" parent="0" />
        <mxCell id="-WXCtavmyhk7zNRrf2_1-4" value="Identity account" style="points=[[0,0],[0.25,0],[0.5,0],[0.75,0],[1,0],[1,0.25],[1,0.5],[1,0.75],[1,1],[0.75,1],[0.5,1],[0.25,1],[0,1],[0,0.75],[0,0.5],[0,0.25]];outlineConnect=0;gradientColor=none;html=1;whiteSpace=wrap;fontSize=13;fontStyle=0;container=1;pointerEvents=0;collapsible=0;recursiveResize=0;shape=mxgraph.aws4.group;grIcon=mxgraph.aws4.group_aws_cloud_alt;strokeColor=#232F3E;fillColor=none;verticalAlign=top;align=left;spacingLeft=30;fontColor=#232F3E;dashed=0;" vertex="1" parent="1">
          <mxGeometry x="-260" y="-730" width="940" height="670" as="geometry" />
        </mxCell>
        <mxCell id="L0JxmkHIDsh3lyRwWzvE-31" value="&lt;span style=&quot;font-size: 13px;&quot;&gt;Amazon EventBridge custom event bus&lt;/span&gt;&lt;br style=&quot;font-size: 13px;&quot;&gt;&lt;b style=&quot;font-size: 13px;&quot;&gt;aws-ps-pipeline-event-bus&lt;/b&gt;" style="sketch=0;outlineConnect=0;fontColor=#232F3E;gradientColor=none;fillColor=#E7157B;strokeColor=none;dashed=0;verticalLabelPosition=bottom;verticalAlign=top;align=center;html=1;fontSize=13;fontStyle=0;aspect=fixed;pointerEvents=1;shape=mxgraph.aws4.eventbridge_custom_event_bus_resource;" parent="-WXCtavmyhk7zNRrf2_1-4" vertex="1">
          <mxGeometry x="648.5" y="54.5" width="78" height="69" as="geometry" />
        </mxCell>
        <mxCell id="L0JxmkHIDsh3lyRwWzvE-2" value="&lt;span style=&quot;border-color: var(--border-color); font-size: 13px;&quot;&gt;AWS IAM Identity Center&lt;/span&gt;&lt;div style=&quot;font-size: 13px;&quot;&gt;&lt;span style=&quot;border-color: var(--border-color); font-size: 13px;&quot;&gt;(delegated administrator)&lt;/span&gt;&lt;/div&gt;" style="outlineConnect=0;fontColor=#232F3E;gradientColor=#F54749;gradientDirection=north;fillColor=#DD344C;strokeColor=#ffffff;dashed=0;verticalLabelPosition=bottom;verticalAlign=top;align=center;html=1;fontSize=13;fontStyle=0;aspect=fixed;shape=mxgraph.aws4.resourceIcon;resIcon=mxgraph.aws4.single_sign_on;sketch=0;points=[[0,0,0],[0.25,0,0],[0.5,0,0],[0.75,0,0],[1,0,0],[0,1,0],[0.25,1,0],[0.5,1,0],[0.75,1,0],[1,1,0],[0,0.25,0],[0,0.5,0],[0,0.75,0],[1,0.25,0],[1,0.5,0],[1,0.75,0]];" parent="-WXCtavmyhk7zNRrf2_1-4" vertex="1">
          <mxGeometry x="810" y="256" width="78" height="78" as="geometry" />
        </mxCell>
        <mxCell id="-WXCtavmyhk7zNRrf2_1-13" style="edgeStyle=orthogonalEdgeStyle;rounded=0;orthogonalLoop=1;jettySize=auto;html=1;entryX=0;entryY=0.5;entryDx=0;entryDy=0;entryPerimeter=0;exitX=1;exitY=0.5;exitDx=0;exitDy=0;fontSize=13;" edge="1" parent="-WXCtavmyhk7zNRrf2_1-4" source="-WXCtavmyhk7zNRrf2_1-10" target="L0JxmkHIDsh3lyRwWzvE-2">
          <mxGeometry relative="1" as="geometry" />
        </mxCell>
        <mxCell id="-WXCtavmyhk7zNRrf2_1-14" value="Create/Update/Delete and Assign&lt;div style=&quot;font-size: 13px;&quot;&gt;Permission Sets&lt;/div&gt;" style="edgeLabel;html=1;align=center;verticalAlign=middle;resizable=0;points=[];fontSize=13;" vertex="1" connectable="0" parent="-WXCtavmyhk7zNRrf2_1-13">
          <mxGeometry x="0.0908" y="-1" relative="1" as="geometry">
            <mxPoint x="-10" y="-26" as="offset" />
          </mxGeometry>
        </mxCell>
        <mxCell id="-WXCtavmyhk7zNRrf2_1-10" value="AWS Permission Set Pipeline" style="fillColor=none;strokeColor=#5A6C86;dashed=1;verticalAlign=top;fontStyle=0;fontColor=#5A6C86;whiteSpace=wrap;html=1;fontSize=13;labelPosition=center;verticalLabelPosition=bottom;align=center;" vertex="1" parent="-WXCtavmyhk7zNRrf2_1-4">
          <mxGeometry x="20" y="210" width="500" height="170" as="geometry" />
        </mxCell>
        <mxCell id="L0JxmkHIDsh3lyRwWzvE-30" value="&lt;span style=&quot;font-size: 13px;&quot;&gt;AWS CodePipeline&lt;br style=&quot;font-size: 13px;&quot;&gt;&lt;/span&gt;&lt;b style=&quot;font-size: 13px;&quot;&gt;aws-ps-pipeline&lt;/b&gt;&lt;span style=&quot;font-size: 13px;&quot;&gt;&lt;br style=&quot;font-size: 13px;&quot;&gt;&lt;/span&gt;" style="sketch=0;outlineConnect=0;fontColor=#232F3E;gradientColor=none;gradientDirection=north;fillColor=#C925D1;strokeColor=#ffffff;dashed=0;verticalLabelPosition=bottom;verticalAlign=top;align=center;html=1;fontSize=13;fontStyle=0;aspect=fixed;shape=mxgraph.aws4.resourceIcon;resIcon=mxgraph.aws4.codepipeline;points=[[0,0,0],[0.25,0,0],[0.5,0,0],[0.75,0,0],[1,0,0],[0,1,0],[0.25,1,0],[0.5,1,0],[0.75,1,0],[1,1,0],[0,0.25,0],[0,0.5,0],[0,0.75,0],[1,0.25,0],[1,0.5,0],[1,0.75,0]];" parent="-WXCtavmyhk7zNRrf2_1-4" vertex="1">
          <mxGeometry x="231" y="240" width="78" height="78" as="geometry" />
        </mxCell>
        <mxCell id="-WXCtavmyhk7zNRrf2_1-11" style="edgeStyle=orthogonalEdgeStyle;rounded=0;orthogonalLoop=1;jettySize=auto;html=1;fontSize=13;" edge="1" parent="-WXCtavmyhk7zNRrf2_1-4" source="-WXCtavmyhk7zNRrf2_1-2" target="L0JxmkHIDsh3lyRwWzvE-30">
          <mxGeometry relative="1" as="geometry" />
        </mxCell>
        <mxCell id="emUZyj7_RIhEPLx9tAJz-2" value="start" style="edgeLabel;html=1;align=center;verticalAlign=middle;resizable=0;points=[];fontSize=13;" vertex="1" connectable="0" parent="-WXCtavmyhk7zNRrf2_1-11">
          <mxGeometry x="-0.1425" y="1" relative="1" as="geometry">
            <mxPoint as="offset" />
          </mxGeometry>
        </mxCell>
        <mxCell id="-WXCtavmyhk7zNRrf2_1-2" value="CodeCommit repository&lt;div style=&quot;font-size: 13px;&quot;&gt;&lt;b style=&quot;font-size: 13px;&quot;&gt;aws-ps-pipeline&lt;/b&gt;&lt;/div&gt;" style="sketch=0;points=[[0,0,0],[0.25,0,0],[0.5,0,0],[0.75,0,0],[1,0,0],[0,1,0],[0.25,1,0],[0.5,1,0],[0.75,1,0],[1,1,0],[0,0.25,0],[0,0.5,0],[0,0.75,0],[1,0.25,0],[1,0.5,0],[1,0.75,0]];outlineConnect=0;fontColor=#232F3E;fillColor=#C925D1;strokeColor=#ffffff;dashed=0;verticalLabelPosition=bottom;verticalAlign=top;align=center;html=1;fontSize=13;fontStyle=0;aspect=fixed;shape=mxgraph.aws4.resourceIcon;resIcon=mxgraph.aws4.codecommit;" vertex="1" parent="-WXCtavmyhk7zNRrf2_1-4">
          <mxGeometry x="70" y="240" width="78" height="78" as="geometry" />
        </mxCell>
        <mxCell id="-WXCtavmyhk7zNRrf2_1-47" style="edgeStyle=orthogonalEdgeStyle;rounded=0;orthogonalLoop=1;jettySize=auto;html=1;fontSize=13;" edge="1" parent="-WXCtavmyhk7zNRrf2_1-4" target="-WXCtavmyhk7zNRrf2_1-45">
          <mxGeometry relative="1" as="geometry">
            <mxPoint x="439" y="360" as="sourcePoint" />
            <Array as="points">
              <mxPoint x="439" y="410" />
            </Array>
          </mxGeometry>
        </mxCell>
        <mxCell id="-WXCtavmyhk7zNRrf2_1-48" value="Read/Write terraform state fie" style="edgeLabel;html=1;align=center;verticalAlign=middle;resizable=0;points=[];fontSize=13;" vertex="1" connectable="0" parent="-WXCtavmyhk7zNRrf2_1-47">
          <mxGeometry x="-0.0406" y="3" relative="1" as="geometry">
            <mxPoint x="29" y="3" as="offset" />
          </mxGeometry>
        </mxCell>
        <mxCell id="L0JxmkHIDsh3lyRwWzvE-18" value="&lt;span style=&quot;font-size: 13px;&quot;&gt;AWS CodeBuild&lt;/span&gt;&lt;br style=&quot;font-size: 13px;&quot;&gt;&lt;b style=&quot;font-size: 13px;&quot;&gt;Terraform plan/apply&lt;/b&gt;" style="outlineConnect=0;fontColor=#232F3E;gradientColor=none;gradientDirection=north;fillColor=#C925D1;strokeColor=#ffffff;dashed=0;verticalLabelPosition=bottom;verticalAlign=top;align=center;html=1;fontSize=13;fontStyle=0;aspect=fixed;shape=mxgraph.aws4.resourceIcon;resIcon=mxgraph.aws4.codebuild;sketch=0;points=[[0,0,0],[0.25,0,0],[0.5,0,0],[0.75,0,0],[1,0,0],[0,1,0],[0.25,1,0],[0.5,1,0],[0.75,1,0],[1,1,0],[0,0.25,0],[0,0.5,0],[0,0.75,0],[1,0.25,0],[1,0.5,0],[1,0.75,0]];" parent="-WXCtavmyhk7zNRrf2_1-4" vertex="1">
          <mxGeometry x="400" y="240" width="78" height="78" as="geometry" />
        </mxCell>
        <mxCell id="-WXCtavmyhk7zNRrf2_1-12" style="edgeStyle=orthogonalEdgeStyle;rounded=0;orthogonalLoop=1;jettySize=auto;html=1;fontSize=13;" edge="1" parent="-WXCtavmyhk7zNRrf2_1-4" source="L0JxmkHIDsh3lyRwWzvE-30" target="L0JxmkHIDsh3lyRwWzvE-18">
          <mxGeometry relative="1" as="geometry" />
        </mxCell>
        <mxCell id="-WXCtavmyhk7zNRrf2_1-24" style="edgeStyle=orthogonalEdgeStyle;rounded=0;orthogonalLoop=1;jettySize=auto;html=1;fontSize=13;" edge="1" parent="-WXCtavmyhk7zNRrf2_1-4" source="-WXCtavmyhk7zNRrf2_1-23" target="L0JxmkHIDsh3lyRwWzvE-31">
          <mxGeometry relative="1" as="geometry">
            <mxPoint x="510" y="89.00000000000023" as="targetPoint" />
          </mxGeometry>
        </mxCell>
        <mxCell id="-WXCtavmyhk7zNRrf2_1-25" style="edgeStyle=orthogonalEdgeStyle;rounded=0;orthogonalLoop=1;jettySize=auto;html=1;fontSize=13;" edge="1" parent="-WXCtavmyhk7zNRrf2_1-4" source="-WXCtavmyhk7zNRrf2_1-23" target="L0JxmkHIDsh3lyRwWzvE-30">
          <mxGeometry relative="1" as="geometry">
            <Array as="points">
              <mxPoint x="270" y="89" />
            </Array>
          </mxGeometry>
        </mxCell>
        <mxCell id="emUZyj7_RIhEPLx9tAJz-1" value="start" style="edgeLabel;html=1;align=center;verticalAlign=middle;resizable=0;points=[];fontSize=13;" vertex="1" connectable="0" parent="-WXCtavmyhk7zNRrf2_1-25">
          <mxGeometry x="0.5439" y="-1" relative="1" as="geometry">
            <mxPoint as="offset" />
          </mxGeometry>
        </mxCell>
        <mxCell id="-WXCtavmyhk7zNRrf2_1-23" value="EventBridge rule to capture&lt;br style=&quot;font-size: 13px;&quot;&gt;Organization management account events" style="outlineConnect=0;fontColor=#232F3E;gradientColor=none;fillColor=#E7157B;strokeColor=none;dashed=0;verticalLabelPosition=bottom;verticalAlign=top;align=center;html=1;fontSize=13;fontStyle=0;aspect=fixed;pointerEvents=1;shape=mxgraph.aws4.event_event_based;container=0;movable=1;resizable=1;rotatable=1;deletable=1;editable=1;connectable=1;sketch=0;" vertex="1" parent="-WXCtavmyhk7zNRrf2_1-4">
          <mxGeometry x="390" y="50" width="78" height="78" as="geometry" />
        </mxCell>
        <mxCell id="-WXCtavmyhk7zNRrf2_1-30" style="edgeStyle=orthogonalEdgeStyle;rounded=0;orthogonalLoop=1;jettySize=auto;html=1;fontSize=13;" edge="1" parent="-WXCtavmyhk7zNRrf2_1-4" source="-WXCtavmyhk7zNRrf2_1-28" target="-WXCtavmyhk7zNRrf2_1-2">
          <mxGeometry relative="1" as="geometry" />
        </mxCell>
        <mxCell id="-WXCtavmyhk7zNRrf2_1-28" value="Permission Set&lt;div style=&quot;font-size: 13px;&quot;&gt;template files&lt;/div&gt;" style="sketch=0;outlineConnect=0;fontColor=#232F3E;gradientColor=none;fillColor=#232F3D;strokeColor=none;dashed=0;verticalLabelPosition=middle;verticalAlign=middle;align=left;html=1;fontSize=13;fontStyle=0;aspect=fixed;pointerEvents=1;shape=mxgraph.aws4.documents3;labelPosition=right;spacingLeft=7;" vertex="1" parent="-WXCtavmyhk7zNRrf2_1-4">
          <mxGeometry x="90.25" y="140" width="37.5" height="51.32" as="geometry" />
        </mxCell>
        <mxCell id="-WXCtavmyhk7zNRrf2_1-31" style="edgeStyle=orthogonalEdgeStyle;rounded=0;orthogonalLoop=1;jettySize=auto;html=1;fontSize=13;" edge="1" parent="-WXCtavmyhk7zNRrf2_1-4" source="-WXCtavmyhk7zNRrf2_1-27" target="-WXCtavmyhk7zNRrf2_1-28">
          <mxGeometry relative="1" as="geometry" />
        </mxCell>
        <mxCell id="-WXCtavmyhk7zNRrf2_1-32" value="Commit and push&lt;div style=&quot;font-size: 13px;&quot;&gt;into branch main&lt;/div&gt;" style="edgeLabel;html=1;align=center;verticalAlign=middle;resizable=0;points=[];labelBackgroundColor=none;fontSize=13;" vertex="1" connectable="0" parent="-WXCtavmyhk7zNRrf2_1-31">
          <mxGeometry x="-0.1321" relative="1" as="geometry">
            <mxPoint x="27" y="-38" as="offset" />
          </mxGeometry>
        </mxCell>
        <mxCell id="-WXCtavmyhk7zNRrf2_1-39" style="edgeStyle=orthogonalEdgeStyle;rounded=0;orthogonalLoop=1;jettySize=auto;html=1;fontSize=13;" edge="1" parent="-WXCtavmyhk7zNRrf2_1-4" target="-WXCtavmyhk7zNRrf2_1-36">
          <mxGeometry relative="1" as="geometry">
            <mxPoint x="-51.235294117646845" y="450.0039922355223" as="sourcePoint" />
            <Array as="points">
              <mxPoint x="-51" y="529.08" />
            </Array>
          </mxGeometry>
        </mxCell>
        <mxCell id="-WXCtavmyhk7zNRrf2_1-27" value="Authorized user" style="sketch=0;outlineConnect=0;fontColor=#232F3E;gradientColor=none;fillColor=#232F3D;strokeColor=none;dashed=0;verticalLabelPosition=bottom;verticalAlign=top;align=center;html=1;fontSize=13;fontStyle=0;aspect=fixed;pointerEvents=1;shape=mxgraph.aws4.authenticated_user;" vertex="1" parent="-WXCtavmyhk7zNRrf2_1-4">
          <mxGeometry x="30" y="40" width="58" height="58" as="geometry" />
        </mxCell>
        <mxCell id="-WXCtavmyhk7zNRrf2_1-33" value="AWS Permission Set Pipeline" style="fillColor=none;strokeColor=#5A6C86;dashed=1;verticalAlign=top;fontStyle=0;fontColor=#5A6C86;whiteSpace=wrap;html=1;fontSize=13;labelPosition=center;verticalLabelPosition=bottom;align=center;" vertex="1" parent="-WXCtavmyhk7zNRrf2_1-4">
          <mxGeometry x="20" y="460.08" width="500" height="170" as="geometry" />
        </mxCell>
        <mxCell id="-WXCtavmyhk7zNRrf2_1-34" value="&lt;span style=&quot;font-size: 13px;&quot;&gt;AWS CodePipeline&lt;br style=&quot;font-size: 13px;&quot;&gt;&lt;/span&gt;&lt;b style=&quot;font-size: 13px;&quot;&gt;aws-ps-pipeline-test&lt;/b&gt;&lt;span style=&quot;font-size: 13px;&quot;&gt;&lt;br style=&quot;font-size: 13px;&quot;&gt;&lt;/span&gt;" style="sketch=0;outlineConnect=0;fontColor=#232F3E;gradientColor=none;gradientDirection=north;fillColor=#C925D1;strokeColor=#ffffff;dashed=0;verticalLabelPosition=bottom;verticalAlign=top;align=center;html=1;fontSize=13;fontStyle=0;aspect=fixed;shape=mxgraph.aws4.resourceIcon;resIcon=mxgraph.aws4.codepipeline;points=[[0,0,0],[0.25,0,0],[0.5,0,0],[0.75,0,0],[1,0,0],[0,1,0],[0.25,1,0],[0.5,1,0],[0.75,1,0],[1,1,0],[0,0.25,0],[0,0.5,0],[0,0.75,0],[1,0.25,0],[1,0.5,0],[1,0.75,0]];" vertex="1" parent="-WXCtavmyhk7zNRrf2_1-4">
          <mxGeometry x="231" y="490.08" width="78" height="78" as="geometry" />
        </mxCell>
        <mxCell id="-WXCtavmyhk7zNRrf2_1-35" style="edgeStyle=orthogonalEdgeStyle;rounded=0;orthogonalLoop=1;jettySize=auto;html=1;fontSize=13;" edge="1" source="-WXCtavmyhk7zNRrf2_1-36" target="-WXCtavmyhk7zNRrf2_1-34" parent="-WXCtavmyhk7zNRrf2_1-4">
          <mxGeometry relative="1" as="geometry" />
        </mxCell>
        <mxCell id="emUZyj7_RIhEPLx9tAJz-3" value="start" style="edgeLabel;html=1;align=center;verticalAlign=middle;resizable=0;points=[];fontSize=13;" vertex="1" connectable="0" parent="-WXCtavmyhk7zNRrf2_1-35">
          <mxGeometry x="-0.1708" y="2" relative="1" as="geometry">
            <mxPoint as="offset" />
          </mxGeometry>
        </mxCell>
        <mxCell id="-WXCtavmyhk7zNRrf2_1-36" value="CodeCommit repository&lt;div style=&quot;font-size: 13px;&quot;&gt;&lt;b style=&quot;font-size: 13px;&quot;&gt;aws-ps-pipeline&lt;/b&gt;&lt;/div&gt;" style="sketch=0;points=[[0,0,0],[0.25,0,0],[0.5,0,0],[0.75,0,0],[1,0,0],[0,1,0],[0.25,1,0],[0.5,1,0],[0.75,1,0],[1,1,0],[0,0.25,0],[0,0.5,0],[0,0.75,0],[1,0.25,0],[1,0.5,0],[1,0.75,0]];outlineConnect=0;fontColor=#232F3E;fillColor=#C925D1;strokeColor=#ffffff;dashed=0;verticalLabelPosition=bottom;verticalAlign=top;align=center;html=1;fontSize=13;fontStyle=0;aspect=fixed;shape=mxgraph.aws4.resourceIcon;resIcon=mxgraph.aws4.codecommit;" vertex="1" parent="-WXCtavmyhk7zNRrf2_1-4">
          <mxGeometry x="70" y="490.08" width="78" height="78" as="geometry" />
        </mxCell>
        <mxCell id="-WXCtavmyhk7zNRrf2_1-46" style="edgeStyle=orthogonalEdgeStyle;rounded=0;orthogonalLoop=1;jettySize=auto;html=1;fontSize=13;" edge="1" parent="-WXCtavmyhk7zNRrf2_1-4" source="-WXCtavmyhk7zNRrf2_1-37" target="-WXCtavmyhk7zNRrf2_1-45">
          <mxGeometry relative="1" as="geometry">
            <Array as="points">
              <mxPoint x="439" y="441" />
            </Array>
          </mxGeometry>
        </mxCell>
        <mxCell id="-WXCtavmyhk7zNRrf2_1-49" value="Rread terraform state fie" style="edgeLabel;html=1;align=center;verticalAlign=middle;resizable=0;points=[];fontSize=13;" vertex="1" connectable="0" parent="-WXCtavmyhk7zNRrf2_1-46">
          <mxGeometry x="0.1726" relative="1" as="geometry">
            <mxPoint y="-1" as="offset" />
          </mxGeometry>
        </mxCell>
        <mxCell id="-WXCtavmyhk7zNRrf2_1-37" value="&lt;span style=&quot;font-size: 13px;&quot;&gt;AWS CodeBuild&lt;/span&gt;&lt;br style=&quot;font-size: 13px;&quot;&gt;&lt;b style=&quot;font-size: 13px;&quot;&gt;Terraform plan&lt;/b&gt;" style="outlineConnect=0;fontColor=#232F3E;gradientColor=none;gradientDirection=north;fillColor=#C925D1;strokeColor=#ffffff;dashed=0;verticalLabelPosition=bottom;verticalAlign=top;align=center;html=1;fontSize=13;fontStyle=0;aspect=fixed;shape=mxgraph.aws4.resourceIcon;resIcon=mxgraph.aws4.codebuild;sketch=0;points=[[0,0,0],[0.25,0,0],[0.5,0,0],[0.75,0,0],[1,0,0],[0,1,0],[0.25,1,0],[0.5,1,0],[0.75,1,0],[1,1,0],[0,0.25,0],[0,0.5,0],[0,0.75,0],[1,0.25,0],[1,0.5,0],[1,0.75,0]];" vertex="1" parent="-WXCtavmyhk7zNRrf2_1-4">
          <mxGeometry x="400" y="490.08" width="78" height="78" as="geometry" />
        </mxCell>
        <mxCell id="-WXCtavmyhk7zNRrf2_1-38" style="edgeStyle=orthogonalEdgeStyle;rounded=0;orthogonalLoop=1;jettySize=auto;html=1;fontSize=13;" edge="1" source="-WXCtavmyhk7zNRrf2_1-34" target="-WXCtavmyhk7zNRrf2_1-37" parent="-WXCtavmyhk7zNRrf2_1-4">
          <mxGeometry relative="1" as="geometry" />
        </mxCell>
        <mxCell id="-WXCtavmyhk7zNRrf2_1-45" value="&lt;div style=&quot;font-size: 13px;&quot;&gt;Amazon S3 Bucket&lt;/div&gt;&lt;b style=&quot;font-size: 13px;&quot;&gt;aws-ps-pipeline-tf-backend&lt;/b&gt;" style="sketch=0;outlineConnect=0;fontColor=#232F3E;gradientColor=none;fillColor=#7AA116;strokeColor=none;dashed=0;verticalLabelPosition=bottom;verticalAlign=top;align=center;html=1;fontSize=13;fontStyle=0;aspect=fixed;pointerEvents=1;shape=mxgraph.aws4.bucket_with_objects;" vertex="1" parent="-WXCtavmyhk7zNRrf2_1-4">
          <mxGeometry x="650" y="386" width="75" height="78" as="geometry" />
        </mxCell>
        <mxCell id="V5EmMQPSxyTTP-92rdfv-1" value="Organization management account" style="points=[[0,0],[0.25,0],[0.5,0],[0.75,0],[1,0],[1,0.25],[1,0.5],[1,0.75],[1,1],[0.75,1],[0.5,1],[0.25,1],[0,1],[0,0.75],[0,0.5],[0,0.25]];outlineConnect=0;gradientColor=none;html=1;whiteSpace=wrap;fontSize=13;fontStyle=0;container=1;pointerEvents=0;collapsible=0;recursiveResize=0;shape=mxgraph.aws4.group;grIcon=mxgraph.aws4.group_aws_cloud_alt;strokeColor=#232F3E;fillColor=none;verticalAlign=top;align=left;spacingLeft=30;fontColor=#232F3E;dashed=0;" vertex="1" parent="1">
          <mxGeometry x="-250" y="-1200" width="930" height="340" as="geometry" />
        </mxCell>
        <mxCell id="-WXCtavmyhk7zNRrf2_1-19" style="edgeStyle=orthogonalEdgeStyle;rounded=0;orthogonalLoop=1;jettySize=auto;html=1;fontSize=13;" edge="1" parent="V5EmMQPSxyTTP-92rdfv-1" source="L0JxmkHIDsh3lyRwWzvE-34" target="V5EmMQPSxyTTP-92rdfv-2">
          <mxGeometry relative="1" as="geometry" />
        </mxCell>
        <mxCell id="L0JxmkHIDsh3lyRwWzvE-34" value="&lt;span style=&quot;font-size: 13px;&quot;&gt;AWS Control Tower&lt;/span&gt;" style="sketch=0;points=[[0,0,0],[0.25,0,0],[0.5,0,0],[0.75,0,0],[1,0,0],[0,1,0],[0.25,1,0],[0.5,1,0],[0.75,1,0],[1,1,0],[0,0.25,0],[0,0.5,0],[0,0.75,0],[1,0.25,0],[1,0.5,0],[1,0.75,0]];outlineConnect=0;fontColor=#232F3E;gradientColor=#F34482;gradientDirection=north;fillColor=#E7157B;strokeColor=#ffffff;dashed=0;verticalLabelPosition=bottom;verticalAlign=top;align=center;html=1;fontSize=13;fontStyle=0;aspect=fixed;shape=mxgraph.aws4.resourceIcon;resIcon=mxgraph.aws4.control_tower;container=0;movable=1;resizable=1;rotatable=1;deletable=1;editable=1;connectable=1;" parent="V5EmMQPSxyTTP-92rdfv-1" vertex="1">
          <mxGeometry x="40" y="145" width="78" height="78" as="geometry" />
        </mxCell>
        <mxCell id="-WXCtavmyhk7zNRrf2_1-21" style="edgeStyle=orthogonalEdgeStyle;rounded=0;orthogonalLoop=1;jettySize=auto;html=1;fontSize=13;" edge="1" parent="V5EmMQPSxyTTP-92rdfv-1" source="L0JxmkHIDsh3lyRwWzvE-25" target="0SOEFCX3mgEvjZF11yKV-1">
          <mxGeometry relative="1" as="geometry" />
        </mxCell>
        <mxCell id="L0JxmkHIDsh3lyRwWzvE-25" value="EventBridge rule to capture&lt;br style=&quot;font-size: 13px;&quot;&gt;CT lifecycle events" style="outlineConnect=0;fontColor=#232F3E;gradientColor=none;fillColor=#E7157B;strokeColor=none;dashed=0;verticalLabelPosition=bottom;verticalAlign=top;align=center;html=1;fontSize=13;fontStyle=0;aspect=fixed;pointerEvents=1;shape=mxgraph.aws4.event_event_based;container=0;movable=1;resizable=1;rotatable=1;deletable=1;editable=1;connectable=1;sketch=0;" parent="V5EmMQPSxyTTP-92rdfv-1" vertex="1">
          <mxGeometry x="638.5" y="145" width="78" height="78" as="geometry" />
        </mxCell>
        <mxCell id="0SOEFCX3mgEvjZF11yKV-1" value="&lt;span style=&quot;border-color: var(--border-color); font-size: 13px;&quot;&gt;&lt;span style=&quot;font-size: 13px;&quot;&gt;&lt;font style=&quot;font-size: 13px;&quot;&gt;Amazon EventBridge&lt;br style=&quot;font-size: 13px;&quot;&gt;&lt;/font&gt;&lt;/span&gt;&lt;/span&gt;&lt;div style=&quot;font-size: 13px;&quot;&gt;&lt;span style=&quot;border-color: var(--border-color); font-size: 13px;&quot;&gt;&lt;span style=&quot;font-size: 13px;&quot;&gt;&lt;font style=&quot;font-size: 13px;&quot;&gt;default&amp;nbsp;event bus&lt;/font&gt;&lt;/span&gt;&lt;br style=&quot;font-size: 13px;&quot;&gt;&lt;/span&gt;&lt;/div&gt;" style="outlineConnect=0;fontColor=#232F3E;gradientColor=none;fillColor=#E7157B;strokeColor=none;dashed=0;verticalLabelPosition=bottom;verticalAlign=top;align=center;html=1;fontSize=13;fontStyle=0;aspect=fixed;pointerEvents=1;shape=mxgraph.aws4.eventbridge_default_event_bus_resource;shadow=0;perimeterSpacing=0;labelBackgroundColor=default;sketch=0;" parent="V5EmMQPSxyTTP-92rdfv-1" vertex="1">
          <mxGeometry x="426" y="157.5" width="78" height="53" as="geometry" />
        </mxCell>
        <mxCell id="-WXCtavmyhk7zNRrf2_1-17" value="CreateManagedAccount" style="sketch=0;outlineConnect=0;fontColor=#232F3E;gradientColor=none;fillColor=#E7157B;strokeColor=none;dashed=0;verticalLabelPosition=bottom;verticalAlign=top;align=center;html=1;fontSize=13;fontStyle=0;aspect=fixed;pointerEvents=1;shape=mxgraph.aws4.event;" vertex="1" parent="V5EmMQPSxyTTP-92rdfv-1">
          <mxGeometry x="218" y="81.5" width="78" height="78" as="geometry" />
        </mxCell>
        <mxCell id="-WXCtavmyhk7zNRrf2_1-18" value="UpdateManagedAccount" style="sketch=0;outlineConnect=0;fontColor=#232F3E;gradientColor=none;fillColor=#E7157B;strokeColor=none;dashed=0;verticalLabelPosition=bottom;verticalAlign=top;align=center;html=1;fontSize=13;fontStyle=0;aspect=fixed;pointerEvents=1;shape=mxgraph.aws4.event;" vertex="1" parent="V5EmMQPSxyTTP-92rdfv-1">
          <mxGeometry x="218" y="196" width="78" height="78" as="geometry" />
        </mxCell>
        <mxCell id="-WXCtavmyhk7zNRrf2_1-20" style="edgeStyle=orthogonalEdgeStyle;rounded=0;orthogonalLoop=1;jettySize=auto;html=1;fontSize=13;" edge="1" parent="V5EmMQPSxyTTP-92rdfv-1" source="V5EmMQPSxyTTP-92rdfv-2" target="0SOEFCX3mgEvjZF11yKV-1">
          <mxGeometry relative="1" as="geometry" />
        </mxCell>
        <mxCell id="V5EmMQPSxyTTP-92rdfv-2" value="CT lifecycle events" style="fillColor=none;strokeColor=#5A6C86;dashed=1;verticalAlign=top;fontStyle=0;fontColor=#5A6C86;whiteSpace=wrap;html=1;fontSize=13;" vertex="1" parent="V5EmMQPSxyTTP-92rdfv-1">
          <mxGeometry x="177" y="52" width="160" height="264" as="geometry" />
        </mxCell>
        <mxCell id="-WXCtavmyhk7zNRrf2_1-9" value="&lt;span style=&quot;border-color: var(--border-color); font-size: 13px;&quot;&gt;AWS IAM Identity Center&lt;/span&gt;" style="outlineConnect=0;fontColor=#232F3E;gradientColor=#F54749;gradientDirection=north;fillColor=#DD344C;strokeColor=#ffffff;dashed=0;verticalLabelPosition=bottom;verticalAlign=top;align=center;html=1;fontSize=13;fontStyle=0;aspect=fixed;shape=mxgraph.aws4.resourceIcon;resIcon=mxgraph.aws4.single_sign_on;sketch=0;points=[[0,0,0],[0.25,0,0],[0.5,0,0],[0.75,0,0],[1,0,0],[0,1,0],[0.25,1,0],[0.5,1,0],[0.75,1,0],[1,1,0],[0,0.25,0],[0,0.5,0],[0,0.75,0],[1,0.25,0],[1,0.5,0],[1,0.75,0]];" vertex="1" parent="V5EmMQPSxyTTP-92rdfv-1">
          <mxGeometry x="800" y="157.5" width="78" height="78" as="geometry" />
        </mxCell>
        <mxCell id="-WXCtavmyhk7zNRrf2_1-15" style="edgeStyle=orthogonalEdgeStyle;rounded=0;orthogonalLoop=1;jettySize=auto;html=1;fontSize=13;" edge="1" parent="1" target="L0JxmkHIDsh3lyRwWzvE-2">
          <mxGeometry relative="1" as="geometry">
            <mxPoint x="589" y="-940" as="sourcePoint" />
          </mxGeometry>
        </mxCell>
        <mxCell id="-WXCtavmyhk7zNRrf2_1-16" value="Delegate administration" style="edgeLabel;html=1;align=center;verticalAlign=middle;resizable=0;points=[];fontSize=13;" vertex="1" connectable="0" parent="-WXCtavmyhk7zNRrf2_1-15">
          <mxGeometry x="-0.112" y="2" relative="1" as="geometry">
            <mxPoint x="-2" y="-67" as="offset" />
          </mxGeometry>
        </mxCell>
        <mxCell id="-WXCtavmyhk7zNRrf2_1-22" style="edgeStyle=orthogonalEdgeStyle;rounded=0;orthogonalLoop=1;jettySize=auto;html=1;fontSize=13;" edge="1" parent="1" target="L0JxmkHIDsh3lyRwWzvE-31">
          <mxGeometry relative="1" as="geometry">
            <mxPoint x="428" y="-930" as="sourcePoint" />
          </mxGeometry>
        </mxCell>
        <mxCell id="-WXCtavmyhk7zNRrf2_1-29" value="Send the event to&lt;div style=&quot;font-size: 13px;&quot;&gt;Identity Account&lt;/div&gt;" style="edgeLabel;html=1;align=center;verticalAlign=middle;resizable=0;points=[];fontSize=13;" vertex="1" connectable="0" parent="-WXCtavmyhk7zNRrf2_1-22">
          <mxGeometry x="-0.0109" y="2" relative="1" as="geometry">
            <mxPoint x="-2" y="5" as="offset" />
          </mxGeometry>
        </mxCell>
        <mxCell id="-WXCtavmyhk7zNRrf2_1-42" value="Permission Set&lt;div style=&quot;font-size: 13px;&quot;&gt;template files&lt;/div&gt;" style="sketch=0;outlineConnect=0;fontColor=#232F3E;gradientColor=none;fillColor=#232F3D;strokeColor=none;dashed=0;verticalLabelPosition=middle;verticalAlign=middle;align=left;html=1;fontSize=13;fontStyle=0;aspect=fixed;pointerEvents=1;shape=mxgraph.aws4.documents3;labelPosition=right;spacingLeft=7;labelBackgroundColor=default;" vertex="1" parent="1">
          <mxGeometry x="-330" y="-330.66" width="37.5" height="51.32" as="geometry" />
        </mxCell>
        <mxCell id="-WXCtavmyhk7zNRrf2_1-43" value="" style="edgeStyle=orthogonalEdgeStyle;rounded=0;orthogonalLoop=1;jettySize=auto;html=1;fontSize=13;" edge="1" parent="1" source="-WXCtavmyhk7zNRrf2_1-27" target="-WXCtavmyhk7zNRrf2_1-42">
          <mxGeometry relative="1" as="geometry">
            <mxPoint x="-490" y="-1391" as="sourcePoint" />
            <mxPoint x="-450" y="-941" as="targetPoint" />
          </mxGeometry>
        </mxCell>
        <mxCell id="-WXCtavmyhk7zNRrf2_1-44" value="Commit and push&lt;div style=&quot;font-size: 13px;&quot;&gt;into branch dev&lt;/div&gt;" style="edgeLabel;html=1;align=center;verticalAlign=middle;resizable=0;points=[];fontSize=13;" vertex="1" connectable="0" parent="-WXCtavmyhk7zNRrf2_1-43">
          <mxGeometry x="-0.2196" y="1" relative="1" as="geometry">
            <mxPoint x="-7" y="-41" as="offset" />
          </mxGeometry>
        </mxCell>
      </root>
    </mxGraphModel>
  </diagram>
</mxfile>
